<mxfile host="app.diagrams.net" modified="2022-02-09T15:38:20.501Z" agent="5.0 (Windows NT 10.0; Win64; x64) AppleWebKit/537.36 (KHTML, like Gecko) Chrome/98.0.4758.81 Safari/537.36" etag="yYNt9n7jIvfygQfr-beg" version="16.5.3" type="github">
  <diagram id="gTptydmdc3C8p_ztm6Fg" name="Страница 1">
    <mxGraphModel dx="3749" dy="5384" grid="1" gridSize="10" guides="1" tooltips="1" connect="1" arrows="1" fold="1" page="1" pageScale="1" pageWidth="4681" pageHeight="3300" math="0" shadow="0">
      <root>
        <mxCell id="0" />
        <mxCell id="1" parent="0" />
        <mxCell id="qw8Mf4owi6WbGOD2SgY8-8" value="ProductController" style="swimlane;fontStyle=0;childLayout=stackLayout;horizontal=1;startSize=30;horizontalStack=0;resizeParent=1;resizeParentMax=0;resizeLast=0;collapsible=1;marginBottom=0;" vertex="1" parent="1">
          <mxGeometry x="2918.26" y="45" width="280" height="90" as="geometry" />
        </mxCell>
        <mxCell id="qw8Mf4owi6WbGOD2SgY8-9" value="+ infoAction(Request, int): Response" style="text;strokeColor=none;fillColor=none;align=left;verticalAlign=middle;spacingLeft=4;spacingRight=4;overflow=hidden;points=[[0,0.5],[1,0.5]];portConstraint=eastwest;rotatable=0;" vertex="1" parent="qw8Mf4owi6WbGOD2SgY8-8">
          <mxGeometry y="30" width="280" height="30" as="geometry" />
        </mxCell>
        <mxCell id="qw8Mf4owi6WbGOD2SgY8-10" value="+ listAction(Request): Response" style="text;strokeColor=none;fillColor=none;align=left;verticalAlign=middle;spacingLeft=4;spacingRight=4;overflow=hidden;points=[[0,0.5],[1,0.5]];portConstraint=eastwest;rotatable=0;" vertex="1" parent="qw8Mf4owi6WbGOD2SgY8-8">
          <mxGeometry y="60" width="280" height="30" as="geometry" />
        </mxCell>
        <mxCell id="qw8Mf4owi6WbGOD2SgY8-16" value="MainController" style="swimlane;fontStyle=0;childLayout=stackLayout;horizontal=1;startSize=30;horizontalStack=0;resizeParent=1;resizeParentMax=0;resizeLast=0;collapsible=1;marginBottom=0;" vertex="1" parent="1">
          <mxGeometry x="1798.26" y="45" width="140" height="60" as="geometry" />
        </mxCell>
        <mxCell id="qw8Mf4owi6WbGOD2SgY8-17" value="+ indexAction(): Response" style="text;strokeColor=none;fillColor=none;align=left;verticalAlign=middle;spacingLeft=4;spacingRight=4;overflow=hidden;points=[[0,0.5],[1,0.5]];portConstraint=eastwest;rotatable=0;fontSize=11;" vertex="1" parent="qw8Mf4owi6WbGOD2SgY8-16">
          <mxGeometry y="30" width="140" height="30" as="geometry" />
        </mxCell>
        <mxCell id="qw8Mf4owi6WbGOD2SgY8-21" value="OrderController" style="swimlane;fontStyle=0;childLayout=stackLayout;horizontal=1;startSize=30;horizontalStack=0;resizeParent=1;resizeParentMax=0;resizeLast=0;collapsible=1;marginBottom=0;fontSize=11;" vertex="1" parent="1">
          <mxGeometry x="2438.26" y="45" width="280" height="90" as="geometry" />
        </mxCell>
        <mxCell id="qw8Mf4owi6WbGOD2SgY8-22" value="+ infoAction(Request): Response" style="text;strokeColor=none;fillColor=none;align=left;verticalAlign=middle;spacingLeft=4;spacingRight=4;overflow=hidden;points=[[0,0.5],[1,0.5]];portConstraint=eastwest;rotatable=0;fontSize=11;" vertex="1" parent="qw8Mf4owi6WbGOD2SgY8-21">
          <mxGeometry y="30" width="280" height="30" as="geometry" />
        </mxCell>
        <mxCell id="qw8Mf4owi6WbGOD2SgY8-23" value="+ checkoutAction(Request): Response" style="text;strokeColor=none;fillColor=none;align=left;verticalAlign=middle;spacingLeft=4;spacingRight=4;overflow=hidden;points=[[0,0.5],[1,0.5]];portConstraint=eastwest;rotatable=0;fontSize=11;" vertex="1" parent="qw8Mf4owi6WbGOD2SgY8-21">
          <mxGeometry y="60" width="280" height="30" as="geometry" />
        </mxCell>
        <mxCell id="qw8Mf4owi6WbGOD2SgY8-25" value="UserController" style="swimlane;fontStyle=0;childLayout=stackLayout;horizontal=1;startSize=30;horizontalStack=0;resizeParent=1;resizeParentMax=0;resizeLast=0;collapsible=1;marginBottom=0;fontSize=11;" vertex="1" parent="1">
          <mxGeometry x="2038.26" y="45" width="280" height="90" as="geometry" />
        </mxCell>
        <mxCell id="qw8Mf4owi6WbGOD2SgY8-26" value="+ authenticationAction(Request): Response" style="text;strokeColor=none;fillColor=none;align=left;verticalAlign=middle;spacingLeft=4;spacingRight=4;overflow=hidden;points=[[0,0.5],[1,0.5]];portConstraint=eastwest;rotatable=0;fontSize=11;" vertex="1" parent="qw8Mf4owi6WbGOD2SgY8-25">
          <mxGeometry y="30" width="280" height="30" as="geometry" />
        </mxCell>
        <mxCell id="qw8Mf4owi6WbGOD2SgY8-27" value="+ logoutAction(Request): Response" style="text;strokeColor=none;fillColor=none;align=left;verticalAlign=middle;spacingLeft=4;spacingRight=4;overflow=hidden;points=[[0,0.5],[1,0.5]];portConstraint=eastwest;rotatable=0;fontSize=11;" vertex="1" parent="qw8Mf4owi6WbGOD2SgY8-25">
          <mxGeometry y="60" width="280" height="30" as="geometry" />
        </mxCell>
        <mxCell id="qw8Mf4owi6WbGOD2SgY8-29" value="Entity\Product" style="swimlane;fontStyle=0;childLayout=stackLayout;horizontal=1;startSize=30;horizontalStack=0;resizeParent=1;resizeParentMax=0;resizeLast=0;collapsible=1;marginBottom=0;fontSize=11;" vertex="1" parent="1">
          <mxGeometry x="879.52" y="40" width="240" height="270" as="geometry" />
        </mxCell>
        <mxCell id="qw8Mf4owi6WbGOD2SgY8-30" value="- id: int" style="text;strokeColor=none;fillColor=none;align=left;verticalAlign=middle;spacingLeft=4;spacingRight=4;overflow=hidden;points=[[0,0.5],[1,0.5]];portConstraint=eastwest;rotatable=0;fontSize=11;" vertex="1" parent="qw8Mf4owi6WbGOD2SgY8-29">
          <mxGeometry y="30" width="240" height="30" as="geometry" />
        </mxCell>
        <mxCell id="qw8Mf4owi6WbGOD2SgY8-31" value="- name: string" style="text;strokeColor=none;fillColor=none;align=left;verticalAlign=middle;spacingLeft=4;spacingRight=4;overflow=hidden;points=[[0,0.5],[1,0.5]];portConstraint=eastwest;rotatable=0;fontSize=11;" vertex="1" parent="qw8Mf4owi6WbGOD2SgY8-29">
          <mxGeometry y="60" width="240" height="30" as="geometry" />
        </mxCell>
        <mxCell id="qw8Mf4owi6WbGOD2SgY8-32" value="- price: float" style="text;strokeColor=none;fillColor=none;align=left;verticalAlign=middle;spacingLeft=4;spacingRight=4;overflow=hidden;points=[[0,0.5],[1,0.5]];portConstraint=eastwest;rotatable=0;fontSize=11;" vertex="1" parent="qw8Mf4owi6WbGOD2SgY8-29">
          <mxGeometry y="90" width="240" height="30" as="geometry" />
        </mxCell>
        <mxCell id="qw8Mf4owi6WbGOD2SgY8-34" value="" style="endArrow=none;html=1;rounded=0;fontSize=11;entryX=1.002;entryY=-0.017;entryDx=0;entryDy=0;entryPerimeter=0;" edge="1" parent="qw8Mf4owi6WbGOD2SgY8-29" target="qw8Mf4owi6WbGOD2SgY8-33">
          <mxGeometry width="50" height="50" relative="1" as="geometry">
            <mxPoint y="120" as="sourcePoint" />
            <mxPoint x="70" y="120" as="targetPoint" />
          </mxGeometry>
        </mxCell>
        <mxCell id="qw8Mf4owi6WbGOD2SgY8-33" value="+ __construct(int, string, float)" style="text;strokeColor=none;fillColor=none;align=left;verticalAlign=middle;spacingLeft=4;spacingRight=4;overflow=hidden;points=[[0,0.5],[1,0.5]];portConstraint=eastwest;rotatable=0;fontSize=11;" vertex="1" parent="qw8Mf4owi6WbGOD2SgY8-29">
          <mxGeometry y="120" width="240" height="30" as="geometry" />
        </mxCell>
        <mxCell id="qw8Mf4owi6WbGOD2SgY8-35" value="+ getId(): int" style="text;strokeColor=none;fillColor=none;align=left;verticalAlign=middle;spacingLeft=4;spacingRight=4;overflow=hidden;points=[[0,0.5],[1,0.5]];portConstraint=eastwest;rotatable=0;fontSize=11;" vertex="1" parent="qw8Mf4owi6WbGOD2SgY8-29">
          <mxGeometry y="150" width="240" height="30" as="geometry" />
        </mxCell>
        <mxCell id="qw8Mf4owi6WbGOD2SgY8-36" value="+ getName(): string" style="text;strokeColor=none;fillColor=none;align=left;verticalAlign=middle;spacingLeft=4;spacingRight=4;overflow=hidden;points=[[0,0.5],[1,0.5]];portConstraint=eastwest;rotatable=0;fontSize=11;" vertex="1" parent="qw8Mf4owi6WbGOD2SgY8-29">
          <mxGeometry y="180" width="240" height="30" as="geometry" />
        </mxCell>
        <mxCell id="qw8Mf4owi6WbGOD2SgY8-37" value="+ getPrice(): float" style="text;strokeColor=none;fillColor=none;align=left;verticalAlign=middle;spacingLeft=4;spacingRight=4;overflow=hidden;points=[[0,0.5],[1,0.5]];portConstraint=eastwest;rotatable=0;fontSize=11;" vertex="1" parent="qw8Mf4owi6WbGOD2SgY8-29">
          <mxGeometry y="210" width="240" height="30" as="geometry" />
        </mxCell>
        <mxCell id="qw8Mf4owi6WbGOD2SgY8-38" value="+ toArray(): array" style="text;strokeColor=none;fillColor=none;align=left;verticalAlign=middle;spacingLeft=4;spacingRight=4;overflow=hidden;points=[[0,0.5],[1,0.5]];portConstraint=eastwest;rotatable=0;fontSize=11;" vertex="1" parent="qw8Mf4owi6WbGOD2SgY8-29">
          <mxGeometry y="240" width="240" height="30" as="geometry" />
        </mxCell>
        <mxCell id="qw8Mf4owi6WbGOD2SgY8-39" value="Entity\Role" style="swimlane;fontStyle=0;childLayout=stackLayout;horizontal=1;startSize=30;horizontalStack=0;resizeParent=1;resizeParentMax=0;resizeLast=0;collapsible=1;marginBottom=0;fontSize=11;" vertex="1" parent="1">
          <mxGeometry x="880" y="440" width="240" height="240" as="geometry" />
        </mxCell>
        <mxCell id="qw8Mf4owi6WbGOD2SgY8-40" value="- id: int" style="text;strokeColor=none;fillColor=none;align=left;verticalAlign=middle;spacingLeft=4;spacingRight=4;overflow=hidden;points=[[0,0.5],[1,0.5]];portConstraint=eastwest;rotatable=0;fontSize=11;" vertex="1" parent="qw8Mf4owi6WbGOD2SgY8-39">
          <mxGeometry y="30" width="240" height="30" as="geometry" />
        </mxCell>
        <mxCell id="qw8Mf4owi6WbGOD2SgY8-41" value="- title: string" style="text;strokeColor=none;fillColor=none;align=left;verticalAlign=middle;spacingLeft=4;spacingRight=4;overflow=hidden;points=[[0,0.5],[1,0.5]];portConstraint=eastwest;rotatable=0;fontSize=11;" vertex="1" parent="qw8Mf4owi6WbGOD2SgY8-39">
          <mxGeometry y="60" width="240" height="30" as="geometry" />
        </mxCell>
        <mxCell id="qw8Mf4owi6WbGOD2SgY8-43" value="- type: string" style="text;strokeColor=none;fillColor=none;align=left;verticalAlign=middle;spacingLeft=4;spacingRight=4;overflow=hidden;points=[[0,0.5],[1,0.5]];portConstraint=eastwest;rotatable=0;fontSize=11;" vertex="1" parent="qw8Mf4owi6WbGOD2SgY8-39">
          <mxGeometry y="90" width="240" height="30" as="geometry" />
        </mxCell>
        <mxCell id="qw8Mf4owi6WbGOD2SgY8-42" value="+ __construct(int, string, string)" style="text;strokeColor=none;fillColor=none;align=left;verticalAlign=middle;spacingLeft=4;spacingRight=4;overflow=hidden;points=[[0,0.5],[1,0.5]];portConstraint=eastwest;rotatable=0;fontSize=11;" vertex="1" parent="qw8Mf4owi6WbGOD2SgY8-39">
          <mxGeometry y="120" width="240" height="30" as="geometry" />
        </mxCell>
        <mxCell id="qw8Mf4owi6WbGOD2SgY8-46" value="+ getId(): int" style="text;strokeColor=none;fillColor=none;align=left;verticalAlign=middle;spacingLeft=4;spacingRight=4;overflow=hidden;points=[[0,0.5],[1,0.5]];portConstraint=eastwest;rotatable=0;fontSize=11;" vertex="1" parent="qw8Mf4owi6WbGOD2SgY8-39">
          <mxGeometry y="150" width="240" height="30" as="geometry" />
        </mxCell>
        <mxCell id="qw8Mf4owi6WbGOD2SgY8-47" value="+ getTitle(): int" style="text;strokeColor=none;fillColor=none;align=left;verticalAlign=middle;spacingLeft=4;spacingRight=4;overflow=hidden;points=[[0,0.5],[1,0.5]];portConstraint=eastwest;rotatable=0;fontSize=11;" vertex="1" parent="qw8Mf4owi6WbGOD2SgY8-39">
          <mxGeometry y="180" width="240" height="30" as="geometry" />
        </mxCell>
        <mxCell id="qw8Mf4owi6WbGOD2SgY8-48" value="+ getType(): int" style="text;strokeColor=none;fillColor=none;align=left;verticalAlign=middle;spacingLeft=4;spacingRight=4;overflow=hidden;points=[[0,0.5],[1,0.5]];portConstraint=eastwest;rotatable=0;fontSize=11;" vertex="1" parent="qw8Mf4owi6WbGOD2SgY8-39">
          <mxGeometry y="210" width="240" height="30" as="geometry" />
        </mxCell>
        <mxCell id="qw8Mf4owi6WbGOD2SgY8-44" value="" style="endArrow=none;html=1;rounded=0;fontSize=11;exitX=0.004;exitY=0.997;exitDx=0;exitDy=0;exitPerimeter=0;entryX=1.001;entryY=-0.021;entryDx=0;entryDy=0;entryPerimeter=0;" edge="1" parent="qw8Mf4owi6WbGOD2SgY8-39" source="qw8Mf4owi6WbGOD2SgY8-43" target="qw8Mf4owi6WbGOD2SgY8-42">
          <mxGeometry width="50" height="50" relative="1" as="geometry">
            <mxPoint x="20" y="70" as="sourcePoint" />
            <mxPoint x="70" y="20" as="targetPoint" />
          </mxGeometry>
        </mxCell>
        <mxCell id="qw8Mf4owi6WbGOD2SgY8-49" value="Entity\User" style="swimlane;fontStyle=0;childLayout=stackLayout;horizontal=1;startSize=30;horizontalStack=0;resizeParent=1;resizeParentMax=0;resizeLast=0;collapsible=1;marginBottom=0;fontSize=11;" vertex="1" parent="1">
          <mxGeometry x="880" y="800" width="240" height="360" as="geometry" />
        </mxCell>
        <mxCell id="qw8Mf4owi6WbGOD2SgY8-50" value="- id: int" style="text;strokeColor=none;fillColor=none;align=left;verticalAlign=middle;spacingLeft=4;spacingRight=4;overflow=hidden;points=[[0,0.5],[1,0.5]];portConstraint=eastwest;rotatable=0;fontSize=11;" vertex="1" parent="qw8Mf4owi6WbGOD2SgY8-49">
          <mxGeometry y="30" width="240" height="30" as="geometry" />
        </mxCell>
        <mxCell id="qw8Mf4owi6WbGOD2SgY8-51" value="- name: string" style="text;strokeColor=none;fillColor=none;align=left;verticalAlign=middle;spacingLeft=4;spacingRight=4;overflow=hidden;points=[[0,0.5],[1,0.5]];portConstraint=eastwest;rotatable=0;fontSize=11;" vertex="1" parent="qw8Mf4owi6WbGOD2SgY8-49">
          <mxGeometry y="60" width="240" height="30" as="geometry" />
        </mxCell>
        <mxCell id="qw8Mf4owi6WbGOD2SgY8-52" value="- login: string" style="text;strokeColor=none;fillColor=none;align=left;verticalAlign=middle;spacingLeft=4;spacingRight=4;overflow=hidden;points=[[0,0.5],[1,0.5]];portConstraint=eastwest;rotatable=0;fontSize=11;" vertex="1" parent="qw8Mf4owi6WbGOD2SgY8-49">
          <mxGeometry y="90" width="240" height="30" as="geometry" />
        </mxCell>
        <mxCell id="qw8Mf4owi6WbGOD2SgY8-58" value="- passwordHash: string" style="text;strokeColor=none;fillColor=none;align=left;verticalAlign=middle;spacingLeft=4;spacingRight=4;overflow=hidden;points=[[0,0.5],[1,0.5]];portConstraint=eastwest;rotatable=0;fontSize=11;" vertex="1" parent="qw8Mf4owi6WbGOD2SgY8-49">
          <mxGeometry y="120" width="240" height="30" as="geometry" />
        </mxCell>
        <mxCell id="qw8Mf4owi6WbGOD2SgY8-59" value="- role: Role" style="text;strokeColor=none;fillColor=none;align=left;verticalAlign=middle;spacingLeft=4;spacingRight=4;overflow=hidden;points=[[0,0.5],[1,0.5]];portConstraint=eastwest;rotatable=0;fontSize=11;" vertex="1" parent="qw8Mf4owi6WbGOD2SgY8-49">
          <mxGeometry y="150" width="240" height="30" as="geometry" />
        </mxCell>
        <mxCell id="qw8Mf4owi6WbGOD2SgY8-53" value="+ __construct(int, string, string, string, Role)" style="text;strokeColor=none;fillColor=none;align=left;verticalAlign=middle;spacingLeft=4;spacingRight=4;overflow=hidden;points=[[0,0.5],[1,0.5]];portConstraint=eastwest;rotatable=0;fontSize=11;" vertex="1" parent="qw8Mf4owi6WbGOD2SgY8-49">
          <mxGeometry y="180" width="240" height="30" as="geometry" />
        </mxCell>
        <mxCell id="qw8Mf4owi6WbGOD2SgY8-54" value="+ getId(): int" style="text;strokeColor=none;fillColor=none;align=left;verticalAlign=middle;spacingLeft=4;spacingRight=4;overflow=hidden;points=[[0,0.5],[1,0.5]];portConstraint=eastwest;rotatable=0;fontSize=11;" vertex="1" parent="qw8Mf4owi6WbGOD2SgY8-49">
          <mxGeometry y="210" width="240" height="30" as="geometry" />
        </mxCell>
        <mxCell id="qw8Mf4owi6WbGOD2SgY8-60" value="+ getName(): string" style="text;strokeColor=none;fillColor=none;align=left;verticalAlign=middle;spacingLeft=4;spacingRight=4;overflow=hidden;points=[[0,0.5],[1,0.5]];portConstraint=eastwest;rotatable=0;fontSize=11;" vertex="1" parent="qw8Mf4owi6WbGOD2SgY8-49">
          <mxGeometry y="240" width="240" height="30" as="geometry" />
        </mxCell>
        <mxCell id="qw8Mf4owi6WbGOD2SgY8-55" value="+ getLogin(): string" style="text;strokeColor=none;fillColor=none;align=left;verticalAlign=middle;spacingLeft=4;spacingRight=4;overflow=hidden;points=[[0,0.5],[1,0.5]];portConstraint=eastwest;rotatable=0;fontSize=11;" vertex="1" parent="qw8Mf4owi6WbGOD2SgY8-49">
          <mxGeometry y="270" width="240" height="30" as="geometry" />
        </mxCell>
        <mxCell id="qw8Mf4owi6WbGOD2SgY8-56" value="+ getPasswordHash(): string" style="text;strokeColor=none;fillColor=none;align=left;verticalAlign=middle;spacingLeft=4;spacingRight=4;overflow=hidden;points=[[0,0.5],[1,0.5]];portConstraint=eastwest;rotatable=0;fontSize=11;" vertex="1" parent="qw8Mf4owi6WbGOD2SgY8-49">
          <mxGeometry y="300" width="240" height="30" as="geometry" />
        </mxCell>
        <mxCell id="qw8Mf4owi6WbGOD2SgY8-61" value="+ getRole(): Role" style="text;strokeColor=none;fillColor=none;align=left;verticalAlign=middle;spacingLeft=4;spacingRight=4;overflow=hidden;points=[[0,0.5],[1,0.5]];portConstraint=eastwest;rotatable=0;fontSize=11;" vertex="1" parent="qw8Mf4owi6WbGOD2SgY8-49">
          <mxGeometry y="330" width="240" height="30" as="geometry" />
        </mxCell>
        <mxCell id="qw8Mf4owi6WbGOD2SgY8-57" value="" style="endArrow=none;html=1;rounded=0;fontSize=11;exitX=0;exitY=1;exitDx=0;exitDy=0;exitPerimeter=0;entryX=1.001;entryY=-0.021;entryDx=0;entryDy=0;entryPerimeter=0;" edge="1" parent="qw8Mf4owi6WbGOD2SgY8-49" source="qw8Mf4owi6WbGOD2SgY8-59" target="qw8Mf4owi6WbGOD2SgY8-53">
          <mxGeometry width="50" height="50" relative="1" as="geometry">
            <mxPoint x="20" y="70" as="sourcePoint" />
            <mxPoint x="70" y="20" as="targetPoint" />
          </mxGeometry>
        </mxCell>
        <mxCell id="qw8Mf4owi6WbGOD2SgY8-62" value="Repository\Product" style="swimlane;fontStyle=0;childLayout=stackLayout;horizontal=1;startSize=30;horizontalStack=0;resizeParent=1;resizeParentMax=0;resizeLast=0;collapsible=1;marginBottom=0;fontSize=11;" vertex="1" parent="1">
          <mxGeometry x="1320" y="320" width="240" height="120" as="geometry" />
        </mxCell>
        <mxCell id="qw8Mf4owi6WbGOD2SgY8-68" value="+ search(array): array" style="text;strokeColor=none;fillColor=none;align=left;verticalAlign=middle;spacingLeft=4;spacingRight=4;overflow=hidden;points=[[0,0.5],[1,0.5]];portConstraint=eastwest;rotatable=0;fontSize=11;" vertex="1" parent="qw8Mf4owi6WbGOD2SgY8-62">
          <mxGeometry y="30" width="240" height="30" as="geometry" />
        </mxCell>
        <mxCell id="qw8Mf4owi6WbGOD2SgY8-69" value="+ fetchAll(): array" style="text;strokeColor=none;fillColor=none;align=left;verticalAlign=middle;spacingLeft=4;spacingRight=4;overflow=hidden;points=[[0,0.5],[1,0.5]];portConstraint=eastwest;rotatable=0;fontSize=11;" vertex="1" parent="qw8Mf4owi6WbGOD2SgY8-62">
          <mxGeometry y="60" width="240" height="30" as="geometry" />
        </mxCell>
        <mxCell id="qw8Mf4owi6WbGOD2SgY8-70" value="- getDataFromSource(array): array" style="text;strokeColor=none;fillColor=none;align=left;verticalAlign=middle;spacingLeft=4;spacingRight=4;overflow=hidden;points=[[0,0.5],[1,0.5]];portConstraint=eastwest;rotatable=0;fontSize=11;" vertex="1" parent="qw8Mf4owi6WbGOD2SgY8-62">
          <mxGeometry y="90" width="240" height="30" as="geometry" />
        </mxCell>
        <mxCell id="qw8Mf4owi6WbGOD2SgY8-72" value="Repository\User" style="swimlane;fontStyle=0;childLayout=stackLayout;horizontal=1;startSize=30;horizontalStack=0;resizeParent=1;resizeParentMax=0;resizeLast=0;collapsible=1;marginBottom=0;fontSize=11;" vertex="1" parent="1">
          <mxGeometry x="1320" y="570" width="240" height="150" as="geometry">
            <mxRectangle x="1320" y="510" width="110" height="30" as="alternateBounds" />
          </mxGeometry>
        </mxCell>
        <mxCell id="qw8Mf4owi6WbGOD2SgY8-79" value="+ getById(int): Entity\User|null" style="text;strokeColor=none;fillColor=none;align=left;verticalAlign=middle;spacingLeft=4;spacingRight=4;overflow=hidden;points=[[0,0.5],[1,0.5]];portConstraint=eastwest;rotatable=0;fontSize=11;" vertex="1" parent="qw8Mf4owi6WbGOD2SgY8-72">
          <mxGeometry y="30" width="240" height="30" as="geometry" />
        </mxCell>
        <mxCell id="qw8Mf4owi6WbGOD2SgY8-80" value="+ getByLogin(string): Entity\User|null" style="text;strokeColor=none;fillColor=none;align=left;verticalAlign=middle;spacingLeft=4;spacingRight=4;overflow=hidden;points=[[0,0.5],[1,0.5]];portConstraint=eastwest;rotatable=0;fontSize=11;" vertex="1" parent="qw8Mf4owi6WbGOD2SgY8-72">
          <mxGeometry y="60" width="240" height="30" as="geometry" />
        </mxCell>
        <mxCell id="qw8Mf4owi6WbGOD2SgY8-81" value="- createUser(array): Entity\User" style="text;strokeColor=none;fillColor=none;align=left;verticalAlign=middle;spacingLeft=4;spacingRight=4;overflow=hidden;points=[[0,0.5],[1,0.5]];portConstraint=eastwest;rotatable=0;fontSize=11;" vertex="1" parent="qw8Mf4owi6WbGOD2SgY8-72">
          <mxGeometry y="90" width="240" height="30" as="geometry" />
        </mxCell>
        <mxCell id="qw8Mf4owi6WbGOD2SgY8-82" value="- getDataFromSource(array): array" style="text;strokeColor=none;fillColor=none;align=left;verticalAlign=middle;spacingLeft=4;spacingRight=4;overflow=hidden;points=[[0,0.5],[1,0.5]];portConstraint=eastwest;rotatable=0;fontSize=11;" vertex="1" parent="qw8Mf4owi6WbGOD2SgY8-72">
          <mxGeometry y="120" width="240" height="30" as="geometry" />
        </mxCell>
        <mxCell id="qw8Mf4owi6WbGOD2SgY8-95" value="BillingException" style="swimlane;fontStyle=0;childLayout=stackLayout;horizontal=1;startSize=30;horizontalStack=0;resizeParent=1;resizeParentMax=0;resizeLast=0;collapsible=1;marginBottom=0;fontSize=11;" vertex="1" parent="1">
          <mxGeometry x="1810" y="1080" width="140" height="60" as="geometry" />
        </mxCell>
        <mxCell id="qw8Mf4owi6WbGOD2SgY8-99" value="BankTransfer" style="swimlane;fontStyle=0;childLayout=stackLayout;horizontal=1;startSize=30;horizontalStack=0;resizeParent=1;resizeParentMax=0;resizeLast=0;collapsible=1;marginBottom=0;fontSize=11;" vertex="1" parent="1">
          <mxGeometry x="1660" y="1030" width="120" height="60" as="geometry" />
        </mxCell>
        <mxCell id="qw8Mf4owi6WbGOD2SgY8-100" value="+ pay(float): void" style="text;strokeColor=none;fillColor=none;align=left;verticalAlign=middle;spacingLeft=4;spacingRight=4;overflow=hidden;points=[[0,0.5],[1,0.5]];portConstraint=eastwest;rotatable=0;fontSize=11;" vertex="1" parent="qw8Mf4owi6WbGOD2SgY8-99">
          <mxGeometry y="30" width="120" height="30" as="geometry" />
        </mxCell>
        <mxCell id="qw8Mf4owi6WbGOD2SgY8-103" value="Card" style="swimlane;fontStyle=0;childLayout=stackLayout;horizontal=1;startSize=30;horizontalStack=0;resizeParent=1;resizeParentMax=0;resizeLast=0;collapsible=1;marginBottom=0;fontSize=11;" vertex="1" parent="1">
          <mxGeometry x="1980" y="1150" width="120" height="60" as="geometry" />
        </mxCell>
        <mxCell id="qw8Mf4owi6WbGOD2SgY8-104" value="+ pay(float): void" style="text;strokeColor=none;fillColor=none;align=left;verticalAlign=middle;spacingLeft=4;spacingRight=4;overflow=hidden;points=[[0,0.5],[1,0.5]];portConstraint=eastwest;rotatable=0;fontSize=11;" vertex="1" parent="qw8Mf4owi6WbGOD2SgY8-103">
          <mxGeometry y="30" width="120" height="30" as="geometry" />
        </mxCell>
        <mxCell id="qw8Mf4owi6WbGOD2SgY8-105" value="interface IBilling" style="swimlane;fontStyle=0;childLayout=stackLayout;horizontal=1;startSize=30;horizontalStack=0;resizeParent=1;resizeParentMax=0;resizeLast=0;collapsible=1;marginBottom=0;fontSize=11;" vertex="1" parent="1">
          <mxGeometry x="1820" y="950" width="120" height="60" as="geometry" />
        </mxCell>
        <mxCell id="qw8Mf4owi6WbGOD2SgY8-106" value="+ pay(float): void" style="text;strokeColor=none;fillColor=none;align=left;verticalAlign=middle;spacingLeft=4;spacingRight=4;overflow=hidden;points=[[0,0.5],[1,0.5]];portConstraint=eastwest;rotatable=0;fontSize=11;" vertex="1" parent="qw8Mf4owi6WbGOD2SgY8-105">
          <mxGeometry y="30" width="120" height="30" as="geometry" />
        </mxCell>
        <mxCell id="qw8Mf4owi6WbGOD2SgY8-107" value="CommunicationException" style="swimlane;fontStyle=0;childLayout=stackLayout;horizontal=1;startSize=30;horizontalStack=0;resizeParent=1;resizeParentMax=0;resizeLast=0;collapsible=1;marginBottom=0;fontSize=11;" vertex="1" parent="1">
          <mxGeometry x="2720" y="1070" width="140" height="60" as="geometry" />
        </mxCell>
        <mxCell id="qw8Mf4owi6WbGOD2SgY8-108" value="Email" style="swimlane;fontStyle=0;childLayout=stackLayout;horizontal=1;startSize=30;horizontalStack=0;resizeParent=1;resizeParentMax=0;resizeLast=0;collapsible=1;marginBottom=0;fontSize=11;" vertex="1" parent="1">
          <mxGeometry x="2370" y="1030" width="280" height="60" as="geometry" />
        </mxCell>
        <mxCell id="qw8Mf4owi6WbGOD2SgY8-109" value="+ process(Model\Entity\User, string, array): void" style="text;strokeColor=none;fillColor=none;align=left;verticalAlign=middle;spacingLeft=4;spacingRight=4;overflow=hidden;points=[[0,0.5],[1,0.5]];portConstraint=eastwest;rotatable=0;fontSize=11;" vertex="1" parent="qw8Mf4owi6WbGOD2SgY8-108">
          <mxGeometry y="30" width="280" height="30" as="geometry" />
        </mxCell>
        <mxCell id="qw8Mf4owi6WbGOD2SgY8-110" value="Sms" style="swimlane;fontStyle=0;childLayout=stackLayout;horizontal=1;startSize=30;horizontalStack=0;resizeParent=1;resizeParentMax=0;resizeLast=0;collapsible=1;marginBottom=0;fontSize=11;" vertex="1" parent="1">
          <mxGeometry x="2930" y="1150" width="280" height="60" as="geometry" />
        </mxCell>
        <mxCell id="qw8Mf4owi6WbGOD2SgY8-111" value="+ process(Model\Entity\User, string, array): void" style="text;strokeColor=none;fillColor=none;align=left;verticalAlign=middle;spacingLeft=4;spacingRight=4;overflow=hidden;points=[[0,0.5],[1,0.5]];portConstraint=eastwest;rotatable=0;fontSize=11;" vertex="1" parent="qw8Mf4owi6WbGOD2SgY8-110">
          <mxGeometry y="30" width="280" height="30" as="geometry" />
        </mxCell>
        <mxCell id="qw8Mf4owi6WbGOD2SgY8-112" value="interface ICommunication" style="swimlane;fontStyle=0;childLayout=stackLayout;horizontal=1;startSize=30;horizontalStack=0;resizeParent=1;resizeParentMax=0;resizeLast=0;collapsible=1;marginBottom=0;fontSize=11;" vertex="1" parent="1">
          <mxGeometry x="2650" y="950" width="280" height="60" as="geometry" />
        </mxCell>
        <mxCell id="qw8Mf4owi6WbGOD2SgY8-113" value="+ process(Model\Entity\User, string, array): void" style="text;strokeColor=none;fillColor=none;align=left;verticalAlign=middle;spacingLeft=4;spacingRight=4;overflow=hidden;points=[[0,0.5],[1,0.5]];portConstraint=eastwest;rotatable=0;fontSize=11;" vertex="1" parent="qw8Mf4owi6WbGOD2SgY8-112">
          <mxGeometry y="30" width="280" height="30" as="geometry" />
        </mxCell>
        <mxCell id="qw8Mf4owi6WbGOD2SgY8-115" value="NullObject" style="swimlane;fontStyle=0;childLayout=stackLayout;horizontal=1;startSize=30;horizontalStack=0;resizeParent=1;resizeParentMax=0;resizeLast=0;collapsible=1;marginBottom=0;fontSize=11;" vertex="1" parent="1">
          <mxGeometry x="3290" y="1220" width="140" height="60" as="geometry" />
        </mxCell>
        <mxCell id="qw8Mf4owi6WbGOD2SgY8-122" value="+ getDiscount(): float" style="text;strokeColor=none;fillColor=none;align=left;verticalAlign=middle;spacingLeft=4;spacingRight=4;overflow=hidden;points=[[0,0.5],[1,0.5]];portConstraint=eastwest;rotatable=0;fontSize=11;" vertex="1" parent="qw8Mf4owi6WbGOD2SgY8-115">
          <mxGeometry y="30" width="140" height="30" as="geometry" />
        </mxCell>
        <mxCell id="qw8Mf4owi6WbGOD2SgY8-116" value="PromoCode" style="swimlane;fontStyle=0;childLayout=stackLayout;horizontal=1;startSize=30;horizontalStack=0;resizeParent=1;resizeParentMax=0;resizeLast=0;collapsible=1;marginBottom=0;fontSize=11;" vertex="1" parent="1">
          <mxGeometry x="3470" y="1260" width="120" height="120" as="geometry" />
        </mxCell>
        <mxCell id="qw8Mf4owi6WbGOD2SgY8-117" value="- promoCode: string" style="text;strokeColor=none;fillColor=none;align=left;verticalAlign=middle;spacingLeft=4;spacingRight=4;overflow=hidden;points=[[0,0.5],[1,0.5]];portConstraint=eastwest;rotatable=0;fontSize=11;" vertex="1" parent="qw8Mf4owi6WbGOD2SgY8-116">
          <mxGeometry y="30" width="120" height="30" as="geometry" />
        </mxCell>
        <mxCell id="qw8Mf4owi6WbGOD2SgY8-124" value="+ __construct(string)" style="text;strokeColor=none;fillColor=none;align=left;verticalAlign=middle;spacingLeft=4;spacingRight=4;overflow=hidden;points=[[0,0.5],[1,0.5]];portConstraint=eastwest;rotatable=0;fontSize=11;" vertex="1" parent="qw8Mf4owi6WbGOD2SgY8-116">
          <mxGeometry y="60" width="120" height="30" as="geometry" />
        </mxCell>
        <mxCell id="qw8Mf4owi6WbGOD2SgY8-125" value="+ getDiscount(): float" style="text;strokeColor=none;fillColor=none;align=left;verticalAlign=middle;spacingLeft=4;spacingRight=4;overflow=hidden;points=[[0,0.5],[1,0.5]];portConstraint=eastwest;rotatable=0;fontSize=11;" vertex="1" parent="qw8Mf4owi6WbGOD2SgY8-116">
          <mxGeometry y="90" width="120" height="30" as="geometry" />
        </mxCell>
        <mxCell id="qw8Mf4owi6WbGOD2SgY8-136" value="" style="endArrow=none;html=1;rounded=0;fontSize=11;entryX=1.009;entryY=0.004;entryDx=0;entryDy=0;entryPerimeter=0;exitX=0.004;exitY=0.004;exitDx=0;exitDy=0;exitPerimeter=0;" edge="1" parent="qw8Mf4owi6WbGOD2SgY8-116" source="qw8Mf4owi6WbGOD2SgY8-124" target="qw8Mf4owi6WbGOD2SgY8-124">
          <mxGeometry width="50" height="50" relative="1" as="geometry">
            <mxPoint x="-10" y="120" as="sourcePoint" />
            <mxPoint x="40" y="70" as="targetPoint" />
          </mxGeometry>
        </mxCell>
        <mxCell id="qw8Mf4owi6WbGOD2SgY8-120" value="interface IDiscount" style="swimlane;fontStyle=0;childLayout=stackLayout;horizontal=1;startSize=30;horizontalStack=0;resizeParent=1;resizeParentMax=0;resizeLast=0;collapsible=1;marginBottom=0;fontSize=11;" vertex="1" parent="1">
          <mxGeometry x="3470" y="1140" width="120" height="70" as="geometry" />
        </mxCell>
        <mxCell id="qw8Mf4owi6WbGOD2SgY8-121" value="+ getDiscount(): float" style="text;strokeColor=none;fillColor=none;align=left;verticalAlign=middle;spacingLeft=4;spacingRight=4;overflow=hidden;points=[[0,0.5],[1,0.5]];portConstraint=eastwest;rotatable=0;fontSize=11;" vertex="1" parent="qw8Mf4owi6WbGOD2SgY8-120">
          <mxGeometry y="30" width="120" height="40" as="geometry" />
        </mxCell>
        <mxCell id="qw8Mf4owi6WbGOD2SgY8-128" value="VipDiscount" style="swimlane;fontStyle=0;childLayout=stackLayout;horizontal=1;startSize=30;horizontalStack=0;resizeParent=1;resizeParentMax=0;resizeLast=0;collapsible=1;marginBottom=0;fontSize=11;" vertex="1" parent="1">
          <mxGeometry x="3660" y="1350" width="180" height="120" as="geometry" />
        </mxCell>
        <mxCell id="qw8Mf4owi6WbGOD2SgY8-129" value="- user: string" style="text;strokeColor=none;fillColor=none;align=left;verticalAlign=middle;spacingLeft=4;spacingRight=4;overflow=hidden;points=[[0,0.5],[1,0.5]];portConstraint=eastwest;rotatable=0;fontSize=11;" vertex="1" parent="qw8Mf4owi6WbGOD2SgY8-128">
          <mxGeometry y="30" width="180" height="30" as="geometry" />
        </mxCell>
        <mxCell id="qw8Mf4owi6WbGOD2SgY8-130" value="+ __construct(Model\Entity\User)" style="text;strokeColor=none;fillColor=none;align=left;verticalAlign=middle;spacingLeft=4;spacingRight=4;overflow=hidden;points=[[0,0.5],[1,0.5]];portConstraint=eastwest;rotatable=0;fontSize=11;" vertex="1" parent="qw8Mf4owi6WbGOD2SgY8-128">
          <mxGeometry y="60" width="180" height="30" as="geometry" />
        </mxCell>
        <mxCell id="qw8Mf4owi6WbGOD2SgY8-131" value="+ getDiscount(): float" style="text;strokeColor=none;fillColor=none;align=left;verticalAlign=middle;spacingLeft=4;spacingRight=4;overflow=hidden;points=[[0,0.5],[1,0.5]];portConstraint=eastwest;rotatable=0;fontSize=11;" vertex="1" parent="qw8Mf4owi6WbGOD2SgY8-128">
          <mxGeometry y="90" width="180" height="30" as="geometry" />
        </mxCell>
        <mxCell id="qw8Mf4owi6WbGOD2SgY8-133" value="" style="endArrow=none;html=1;rounded=0;fontSize=11;exitX=0.001;exitY=-0.015;exitDx=0;exitDy=0;exitPerimeter=0;entryX=0.999;entryY=1.008;entryDx=0;entryDy=0;entryPerimeter=0;" edge="1" parent="qw8Mf4owi6WbGOD2SgY8-128" source="qw8Mf4owi6WbGOD2SgY8-130" target="qw8Mf4owi6WbGOD2SgY8-129">
          <mxGeometry width="50" height="50" relative="1" as="geometry">
            <mxPoint x="50" y="80" as="sourcePoint" />
            <mxPoint x="100" y="30" as="targetPoint" />
          </mxGeometry>
        </mxCell>
        <mxCell id="qw8Mf4owi6WbGOD2SgY8-137" value="Order\Basket" style="swimlane;fontStyle=0;childLayout=stackLayout;horizontal=1;startSize=30;horizontalStack=0;resizeParent=1;resizeParentMax=0;resizeLast=0;collapsible=1;marginBottom=0;fontSize=11;" vertex="1" parent="1">
          <mxGeometry x="2641.08" y="360" width="360" height="330" as="geometry" />
        </mxCell>
        <mxCell id="qw8Mf4owi6WbGOD2SgY8-138" value="- BASKET_DATA_KEY: string" style="text;strokeColor=none;fillColor=none;align=left;verticalAlign=middle;spacingLeft=4;spacingRight=4;overflow=hidden;points=[[0,0.5],[1,0.5]];portConstraint=eastwest;rotatable=0;fontSize=11;" vertex="1" parent="qw8Mf4owi6WbGOD2SgY8-137">
          <mxGeometry y="30" width="360" height="30" as="geometry" />
        </mxCell>
        <mxCell id="qw8Mf4owi6WbGOD2SgY8-139" value="- session: SessionInterface" style="text;strokeColor=none;fillColor=none;align=left;verticalAlign=middle;spacingLeft=4;spacingRight=4;overflow=hidden;points=[[0,0.5],[1,0.5]];portConstraint=eastwest;rotatable=0;fontSize=11;" vertex="1" parent="qw8Mf4owi6WbGOD2SgY8-137">
          <mxGeometry y="60" width="360" height="30" as="geometry" />
        </mxCell>
        <mxCell id="qw8Mf4owi6WbGOD2SgY8-142" value="+ __construct(SessionInterface)" style="text;strokeColor=none;fillColor=none;align=left;verticalAlign=middle;spacingLeft=4;spacingRight=4;overflow=hidden;points=[[0,0.5],[1,0.5]];portConstraint=eastwest;rotatable=0;fontSize=11;" vertex="1" parent="qw8Mf4owi6WbGOD2SgY8-137">
          <mxGeometry y="90" width="360" height="30" as="geometry" />
        </mxCell>
        <mxCell id="qw8Mf4owi6WbGOD2SgY8-143" value="+ addProduct(int): void" style="text;strokeColor=none;fillColor=none;align=left;verticalAlign=middle;spacingLeft=4;spacingRight=4;overflow=hidden;points=[[0,0.5],[1,0.5]];portConstraint=eastwest;rotatable=0;fontSize=11;" vertex="1" parent="qw8Mf4owi6WbGOD2SgY8-137">
          <mxGeometry y="120" width="360" height="30" as="geometry" />
        </mxCell>
        <mxCell id="qw8Mf4owi6WbGOD2SgY8-144" value="+ isProductInBasket(int): bool" style="text;strokeColor=none;fillColor=none;align=left;verticalAlign=middle;spacingLeft=4;spacingRight=4;overflow=hidden;points=[[0,0.5],[1,0.5]];portConstraint=eastwest;rotatable=0;fontSize=11;" vertex="1" parent="qw8Mf4owi6WbGOD2SgY8-137">
          <mxGeometry y="150" width="360" height="30" as="geometry" />
        </mxCell>
        <mxCell id="qw8Mf4owi6WbGOD2SgY8-145" value="+ getProductsInfo(): array" style="text;strokeColor=none;fillColor=none;align=left;verticalAlign=middle;spacingLeft=4;spacingRight=4;overflow=hidden;points=[[0,0.5],[1,0.5]];portConstraint=eastwest;rotatable=0;fontSize=11;" vertex="1" parent="qw8Mf4owi6WbGOD2SgY8-137">
          <mxGeometry y="180" width="360" height="30" as="geometry" />
        </mxCell>
        <mxCell id="qw8Mf4owi6WbGOD2SgY8-146" value="+ checkout(): void" style="text;strokeColor=none;fillColor=none;align=left;verticalAlign=middle;spacingLeft=4;spacingRight=4;overflow=hidden;points=[[0,0.5],[1,0.5]];portConstraint=eastwest;rotatable=0;fontSize=11;" vertex="1" parent="qw8Mf4owi6WbGOD2SgY8-137">
          <mxGeometry y="210" width="360" height="30" as="geometry" />
        </mxCell>
        <mxCell id="qw8Mf4owi6WbGOD2SgY8-157" value="+ checkoutProcess(IDiscount, IBilling, ISecurity, ICommunication): void" style="text;strokeColor=none;fillColor=none;align=left;verticalAlign=middle;spacingLeft=4;spacingRight=4;overflow=hidden;points=[[0,0.5],[1,0.5]];portConstraint=eastwest;rotatable=0;fontSize=11;" vertex="1" parent="qw8Mf4owi6WbGOD2SgY8-137">
          <mxGeometry y="240" width="360" height="30" as="geometry" />
        </mxCell>
        <mxCell id="qw8Mf4owi6WbGOD2SgY8-158" value="# getProductRepository(): Model\Repository\Product" style="text;strokeColor=none;fillColor=none;align=left;verticalAlign=middle;spacingLeft=4;spacingRight=4;overflow=hidden;points=[[0,0.5],[1,0.5]];portConstraint=eastwest;rotatable=0;fontSize=11;" vertex="1" parent="qw8Mf4owi6WbGOD2SgY8-137">
          <mxGeometry y="270" width="360" height="30" as="geometry" />
        </mxCell>
        <mxCell id="qw8Mf4owi6WbGOD2SgY8-159" value="- getProductIds(): array" style="text;strokeColor=none;fillColor=none;align=left;verticalAlign=middle;spacingLeft=4;spacingRight=4;overflow=hidden;points=[[0,0.5],[1,0.5]];portConstraint=eastwest;rotatable=0;fontSize=11;" vertex="1" parent="qw8Mf4owi6WbGOD2SgY8-137">
          <mxGeometry y="300" width="360" height="30" as="geometry" />
        </mxCell>
        <mxCell id="qw8Mf4owi6WbGOD2SgY8-156" value="" style="endArrow=none;html=1;rounded=0;fontSize=11;exitX=-0.003;exitY=0.003;exitDx=0;exitDy=0;exitPerimeter=0;entryX=1;entryY=1.003;entryDx=0;entryDy=0;entryPerimeter=0;" edge="1" parent="qw8Mf4owi6WbGOD2SgY8-137" source="qw8Mf4owi6WbGOD2SgY8-142" target="qw8Mf4owi6WbGOD2SgY8-139">
          <mxGeometry width="50" height="50" relative="1" as="geometry">
            <mxPoint x="140" y="170" as="sourcePoint" />
            <mxPoint x="190" y="120" as="targetPoint" />
          </mxGeometry>
        </mxCell>
        <mxCell id="qw8Mf4owi6WbGOD2SgY8-160" value="Product\Product" style="swimlane;fontStyle=0;childLayout=stackLayout;horizontal=1;startSize=30;horizontalStack=0;resizeParent=1;resizeParentMax=0;resizeLast=0;collapsible=1;marginBottom=0;fontSize=11;" vertex="1" parent="1">
          <mxGeometry x="1760" y="440" width="280" height="120" as="geometry" />
        </mxCell>
        <mxCell id="qw8Mf4owi6WbGOD2SgY8-161" value="+ getInfo(int): Model\Entity\Product|null" style="text;strokeColor=none;fillColor=none;align=left;verticalAlign=middle;spacingLeft=4;spacingRight=4;overflow=hidden;points=[[0,0.5],[1,0.5]];portConstraint=eastwest;rotatable=0;fontSize=11;" vertex="1" parent="qw8Mf4owi6WbGOD2SgY8-160">
          <mxGeometry y="30" width="280" height="30" as="geometry" />
        </mxCell>
        <mxCell id="qw8Mf4owi6WbGOD2SgY8-162" value="+ getAll(string): array" style="text;strokeColor=none;fillColor=none;align=left;verticalAlign=middle;spacingLeft=4;spacingRight=4;overflow=hidden;points=[[0,0.5],[1,0.5]];portConstraint=eastwest;rotatable=0;fontSize=11;" vertex="1" parent="qw8Mf4owi6WbGOD2SgY8-160">
          <mxGeometry y="60" width="280" height="30" as="geometry" />
        </mxCell>
        <mxCell id="qw8Mf4owi6WbGOD2SgY8-163" value="# getProductRepository(): Model\Repository\Product" style="text;strokeColor=none;fillColor=none;align=left;verticalAlign=middle;spacingLeft=4;spacingRight=4;overflow=hidden;points=[[0,0.5],[1,0.5]];portConstraint=eastwest;rotatable=0;fontSize=11;" vertex="1" parent="qw8Mf4owi6WbGOD2SgY8-160">
          <mxGeometry y="90" width="280" height="30" as="geometry" />
        </mxCell>
        <mxCell id="qw8Mf4owi6WbGOD2SgY8-164" value="interface ISecurity" style="swimlane;fontStyle=0;childLayout=stackLayout;horizontal=1;startSize=30;horizontalStack=0;resizeParent=1;resizeParentMax=0;resizeLast=0;collapsible=1;marginBottom=0;fontSize=11;" vertex="1" parent="1">
          <mxGeometry x="2170" y="740" width="280" height="150" as="geometry" />
        </mxCell>
        <mxCell id="qw8Mf4owi6WbGOD2SgY8-165" value="+ getUser(): Model\Entity\User|null" style="text;strokeColor=none;fillColor=none;align=left;verticalAlign=middle;spacingLeft=4;spacingRight=4;overflow=hidden;points=[[0,0.5],[1,0.5]];portConstraint=eastwest;rotatable=0;fontSize=11;" vertex="1" parent="qw8Mf4owi6WbGOD2SgY8-164">
          <mxGeometry y="30" width="280" height="30" as="geometry" />
        </mxCell>
        <mxCell id="qw8Mf4owi6WbGOD2SgY8-166" value="+ isLogged(): bool" style="text;strokeColor=none;fillColor=none;align=left;verticalAlign=middle;spacingLeft=4;spacingRight=4;overflow=hidden;points=[[0,0.5],[1,0.5]];portConstraint=eastwest;rotatable=0;fontSize=11;" vertex="1" parent="qw8Mf4owi6WbGOD2SgY8-164">
          <mxGeometry y="60" width="280" height="30" as="geometry" />
        </mxCell>
        <mxCell id="qw8Mf4owi6WbGOD2SgY8-167" value="+ authentication(string, string): bool" style="text;strokeColor=none;fillColor=none;align=left;verticalAlign=middle;spacingLeft=4;spacingRight=4;overflow=hidden;points=[[0,0.5],[1,0.5]];portConstraint=eastwest;rotatable=0;fontSize=11;" vertex="1" parent="qw8Mf4owi6WbGOD2SgY8-164">
          <mxGeometry y="90" width="280" height="30" as="geometry" />
        </mxCell>
        <mxCell id="qw8Mf4owi6WbGOD2SgY8-168" value="+ logout(): void" style="text;strokeColor=none;fillColor=none;align=left;verticalAlign=middle;spacingLeft=4;spacingRight=4;overflow=hidden;points=[[0,0.5],[1,0.5]];portConstraint=eastwest;rotatable=0;fontSize=11;fontStyle=0" vertex="1" parent="qw8Mf4owi6WbGOD2SgY8-164">
          <mxGeometry y="120" width="280" height="30" as="geometry" />
        </mxCell>
        <mxCell id="qw8Mf4owi6WbGOD2SgY8-169" value="Security" style="swimlane;fontStyle=0;childLayout=stackLayout;horizontal=1;startSize=30;horizontalStack=0;resizeParent=1;resizeParentMax=0;resizeLast=0;collapsible=1;marginBottom=0;fontSize=11;" vertex="1" parent="1">
          <mxGeometry x="2180.28" y="430" width="280" height="270" as="geometry" />
        </mxCell>
        <mxCell id="qw8Mf4owi6WbGOD2SgY8-170" value="- SESSION_USER_IDENTITY: string" style="text;strokeColor=none;fillColor=none;align=left;verticalAlign=middle;spacingLeft=4;spacingRight=4;overflow=hidden;points=[[0,0.5],[1,0.5]];portConstraint=eastwest;rotatable=0;fontSize=11;" vertex="1" parent="qw8Mf4owi6WbGOD2SgY8-169">
          <mxGeometry y="30" width="280" height="30" as="geometry" />
        </mxCell>
        <mxCell id="qw8Mf4owi6WbGOD2SgY8-171" value="- session: SessionInterface" style="text;strokeColor=none;fillColor=none;align=left;verticalAlign=middle;spacingLeft=4;spacingRight=4;overflow=hidden;points=[[0,0.5],[1,0.5]];portConstraint=eastwest;rotatable=0;fontSize=11;" vertex="1" parent="qw8Mf4owi6WbGOD2SgY8-169">
          <mxGeometry y="60" width="280" height="30" as="geometry" />
        </mxCell>
        <mxCell id="qw8Mf4owi6WbGOD2SgY8-172" value="+ __construct(SessionInterface)" style="text;strokeColor=none;fillColor=none;align=left;verticalAlign=middle;spacingLeft=4;spacingRight=4;overflow=hidden;points=[[0,0.5],[1,0.5]];portConstraint=eastwest;rotatable=0;fontSize=11;" vertex="1" parent="qw8Mf4owi6WbGOD2SgY8-169">
          <mxGeometry y="90" width="280" height="30" as="geometry" />
        </mxCell>
        <mxCell id="qw8Mf4owi6WbGOD2SgY8-173" value="+ getUser(): Model\Entity\User|null" style="text;strokeColor=none;fillColor=none;align=left;verticalAlign=middle;spacingLeft=4;spacingRight=4;overflow=hidden;points=[[0,0.5],[1,0.5]];portConstraint=eastwest;rotatable=0;fontSize=11;fontStyle=0" vertex="1" parent="qw8Mf4owi6WbGOD2SgY8-169">
          <mxGeometry y="120" width="280" height="30" as="geometry" />
        </mxCell>
        <mxCell id="qw8Mf4owi6WbGOD2SgY8-176" value="+ isLogged(): bool" style="text;strokeColor=none;fillColor=none;align=left;verticalAlign=middle;spacingLeft=4;spacingRight=4;overflow=hidden;points=[[0,0.5],[1,0.5]];portConstraint=eastwest;rotatable=0;fontSize=11;fontStyle=0" vertex="1" parent="qw8Mf4owi6WbGOD2SgY8-169">
          <mxGeometry y="150" width="280" height="30" as="geometry" />
        </mxCell>
        <mxCell id="qw8Mf4owi6WbGOD2SgY8-177" value="+ authentication(string, string): bool" style="text;strokeColor=none;fillColor=none;align=left;verticalAlign=middle;spacingLeft=4;spacingRight=4;overflow=hidden;points=[[0,0.5],[1,0.5]];portConstraint=eastwest;rotatable=0;fontSize=11;fontStyle=0" vertex="1" parent="qw8Mf4owi6WbGOD2SgY8-169">
          <mxGeometry y="180" width="280" height="30" as="geometry" />
        </mxCell>
        <mxCell id="qw8Mf4owi6WbGOD2SgY8-178" value="+ logout(): void" style="text;strokeColor=none;fillColor=none;align=left;verticalAlign=middle;spacingLeft=4;spacingRight=4;overflow=hidden;points=[[0,0.5],[1,0.5]];portConstraint=eastwest;rotatable=0;fontSize=11;fontStyle=0" vertex="1" parent="qw8Mf4owi6WbGOD2SgY8-169">
          <mxGeometry y="210" width="280" height="30" as="geometry" />
        </mxCell>
        <mxCell id="qw8Mf4owi6WbGOD2SgY8-179" value="# getUserRepository(): Model\Repository\User" style="text;strokeColor=none;fillColor=none;align=left;verticalAlign=middle;spacingLeft=4;spacingRight=4;overflow=hidden;points=[[0,0.5],[1,0.5]];portConstraint=eastwest;rotatable=0;fontSize=11;fontStyle=0" vertex="1" parent="qw8Mf4owi6WbGOD2SgY8-169">
          <mxGeometry y="240" width="280" height="30" as="geometry" />
        </mxCell>
        <mxCell id="qw8Mf4owi6WbGOD2SgY8-175" value="" style="endArrow=none;html=1;rounded=0;fontSize=11;entryX=-0.001;entryY=1;entryDx=0;entryDy=0;entryPerimeter=0;exitX=0.997;exitY=0;exitDx=0;exitDy=0;exitPerimeter=0;" edge="1" parent="qw8Mf4owi6WbGOD2SgY8-169" source="qw8Mf4owi6WbGOD2SgY8-172" target="qw8Mf4owi6WbGOD2SgY8-171">
          <mxGeometry width="50" height="50" relative="1" as="geometry">
            <mxPoint x="471.0799999999999" y="235" as="sourcePoint" />
            <mxPoint x="521.0799999999999" y="185" as="targetPoint" />
          </mxGeometry>
        </mxCell>
        <mxCell id="qw8Mf4owi6WbGOD2SgY8-183" style="edgeStyle=orthogonalEdgeStyle;rounded=0;orthogonalLoop=1;jettySize=auto;html=1;fontSize=11;dashed=1;endArrow=block;endFill=0;exitX=0.5;exitY=0;exitDx=0;exitDy=0;" edge="1" parent="1" source="qw8Mf4owi6WbGOD2SgY8-95">
          <mxGeometry relative="1" as="geometry">
            <mxPoint x="1880" y="1010" as="targetPoint" />
            <mxPoint x="1880" y="1065" as="sourcePoint" />
          </mxGeometry>
        </mxCell>
        <mxCell id="qw8Mf4owi6WbGOD2SgY8-185" value="" style="endArrow=block;html=1;rounded=0;dashed=1;fontSize=11;endFill=0;entryX=0.997;entryY=-0.02;entryDx=0;entryDy=0;entryPerimeter=0;exitX=0.5;exitY=0;exitDx=0;exitDy=0;" edge="1" parent="1" source="qw8Mf4owi6WbGOD2SgY8-103" target="qw8Mf4owi6WbGOD2SgY8-106">
          <mxGeometry width="50" height="50" relative="1" as="geometry">
            <mxPoint x="2170" y="1030" as="sourcePoint" />
            <mxPoint x="2210" y="860" as="targetPoint" />
          </mxGeometry>
        </mxCell>
        <mxCell id="qw8Mf4owi6WbGOD2SgY8-186" value="" style="endArrow=block;html=1;rounded=0;dashed=1;fontSize=11;entryX=-0.01;entryY=0.06;entryDx=0;entryDy=0;entryPerimeter=0;endFill=0;" edge="1" parent="1" target="qw8Mf4owi6WbGOD2SgY8-106">
          <mxGeometry width="50" height="50" relative="1" as="geometry">
            <mxPoint x="1720" y="1030" as="sourcePoint" />
            <mxPoint x="1770" y="980" as="targetPoint" />
          </mxGeometry>
        </mxCell>
        <mxCell id="qw8Mf4owi6WbGOD2SgY8-187" value="" style="endArrow=block;html=1;rounded=0;dashed=1;fontSize=11;endFill=0;entryX=0.997;entryY=-0.02;entryDx=0;entryDy=0;entryPerimeter=0;exitX=0.468;exitY=-0.065;exitDx=0;exitDy=0;exitPerimeter=0;" edge="1" parent="1" source="qw8Mf4owi6WbGOD2SgY8-110">
          <mxGeometry width="50" height="50" relative="1" as="geometry">
            <mxPoint x="3030.36" y="1030" as="sourcePoint" />
            <mxPoint x="2930.0000000000005" y="979.4000000000001" as="targetPoint" />
          </mxGeometry>
        </mxCell>
        <mxCell id="qw8Mf4owi6WbGOD2SgY8-188" value="" style="endArrow=block;html=1;rounded=0;dashed=1;fontSize=11;entryX=-0.01;entryY=0.06;entryDx=0;entryDy=0;entryPerimeter=0;endFill=0;exitX=0.571;exitY=0.017;exitDx=0;exitDy=0;exitPerimeter=0;" edge="1" parent="1" source="qw8Mf4owi6WbGOD2SgY8-108">
          <mxGeometry width="50" height="50" relative="1" as="geometry">
            <mxPoint x="2551.2" y="1028.2" as="sourcePoint" />
            <mxPoint x="2650" y="980" as="targetPoint" />
          </mxGeometry>
        </mxCell>
        <mxCell id="qw8Mf4owi6WbGOD2SgY8-189" style="edgeStyle=orthogonalEdgeStyle;rounded=0;orthogonalLoop=1;jettySize=auto;html=1;fontSize=11;dashed=1;endArrow=block;endFill=0;" edge="1" parent="1">
          <mxGeometry relative="1" as="geometry">
            <mxPoint x="3529.58" y="1210" as="targetPoint" />
            <mxPoint x="3530" y="1260" as="sourcePoint" />
            <Array as="points">
              <mxPoint x="3529.18" y="1235" />
              <mxPoint x="3529.18" y="1235" />
            </Array>
          </mxGeometry>
        </mxCell>
        <mxCell id="qw8Mf4owi6WbGOD2SgY8-192" value="" style="endArrow=block;html=1;rounded=0;dashed=1;fontSize=11;endFill=0;entryX=0.997;entryY=-0.02;entryDx=0;entryDy=0;entryPerimeter=0;exitX=0.5;exitY=0;exitDx=0;exitDy=0;" edge="1" parent="1" source="qw8Mf4owi6WbGOD2SgY8-128">
          <mxGeometry width="50" height="50" relative="1" as="geometry">
            <mxPoint x="3690.3600000000006" y="1220" as="sourcePoint" />
            <mxPoint x="3590" y="1169.4" as="targetPoint" />
          </mxGeometry>
        </mxCell>
        <mxCell id="qw8Mf4owi6WbGOD2SgY8-193" value="" style="endArrow=block;html=1;rounded=0;dashed=1;fontSize=11;entryX=-0.01;entryY=0.06;entryDx=0;entryDy=0;entryPerimeter=0;endFill=0;" edge="1" parent="1">
          <mxGeometry width="50" height="50" relative="1" as="geometry">
            <mxPoint x="3371.2" y="1220" as="sourcePoint" />
            <mxPoint x="3470" y="1171.8" as="targetPoint" />
          </mxGeometry>
        </mxCell>
        <mxCell id="qw8Mf4owi6WbGOD2SgY8-196" style="edgeStyle=orthogonalEdgeStyle;rounded=0;orthogonalLoop=1;jettySize=auto;html=1;fontSize=11;dashed=1;endArrow=block;endFill=0;exitX=0.5;exitY=0;exitDx=0;exitDy=0;" edge="1" parent="1">
          <mxGeometry relative="1" as="geometry">
            <mxPoint x="2789.88" y="1010" as="targetPoint" />
            <mxPoint x="2789.88" y="1070" as="sourcePoint" />
          </mxGeometry>
        </mxCell>
        <mxCell id="qw8Mf4owi6WbGOD2SgY8-197" value="" style="endArrow=open;html=1;rounded=0;dashed=1;fontSize=11;exitX=0;exitY=0.5;exitDx=0;exitDy=0;entryX=1.015;entryY=0;entryDx=0;entryDy=0;entryPerimeter=0;endFill=0;" edge="1" parent="1" source="qw8Mf4owi6WbGOD2SgY8-69" target="qw8Mf4owi6WbGOD2SgY8-33">
          <mxGeometry width="50" height="50" relative="1" as="geometry">
            <mxPoint x="1210" y="420" as="sourcePoint" />
            <mxPoint x="1260" y="370" as="targetPoint" />
          </mxGeometry>
        </mxCell>
        <mxCell id="qw8Mf4owi6WbGOD2SgY8-198" value="" style="endArrow=open;html=1;rounded=0;dashed=1;fontSize=11;exitX=0.007;exitY=0.118;exitDx=0;exitDy=0;endFill=0;exitPerimeter=0;entryX=1.02;entryY=1.011;entryDx=0;entryDy=0;entryPerimeter=0;" edge="1" parent="1" source="qw8Mf4owi6WbGOD2SgY8-72" target="qw8Mf4owi6WbGOD2SgY8-43">
          <mxGeometry width="50" height="50" relative="1" as="geometry">
            <mxPoint x="1320" y="600" as="sourcePoint" />
            <mxPoint x="1120" y="480" as="targetPoint" />
          </mxGeometry>
        </mxCell>
        <mxCell id="qw8Mf4owi6WbGOD2SgY8-199" value="" style="endArrow=open;html=1;rounded=0;dashed=1;fontSize=11;entryX=1.001;entryY=0.944;entryDx=0;entryDy=0;entryPerimeter=0;endFill=0;exitX=-0.002;exitY=0.888;exitDx=0;exitDy=0;exitPerimeter=0;" edge="1" parent="1" source="qw8Mf4owi6WbGOD2SgY8-79" target="qw8Mf4owi6WbGOD2SgY8-59">
          <mxGeometry width="50" height="50" relative="1" as="geometry">
            <mxPoint x="1320" y="600" as="sourcePoint" />
            <mxPoint x="1123.6000000000004" y="530" as="targetPoint" />
          </mxGeometry>
        </mxCell>
        <mxCell id="qw8Mf4owi6WbGOD2SgY8-200" value="" style="endArrow=open;html=1;rounded=0;dashed=1;fontSize=11;exitX=0.671;exitY=1.063;exitDx=0;exitDy=0;endFill=0;exitPerimeter=0;entryX=0.102;entryY=-0.007;entryDx=0;entryDy=0;entryPerimeter=0;" edge="1" parent="1" source="qw8Mf4owi6WbGOD2SgY8-23" target="qw8Mf4owi6WbGOD2SgY8-137">
          <mxGeometry width="50" height="50" relative="1" as="geometry">
            <mxPoint x="2326.4" y="945" as="sourcePoint" />
            <mxPoint x="2620" y="1350" as="targetPoint" />
          </mxGeometry>
        </mxCell>
        <mxCell id="qw8Mf4owi6WbGOD2SgY8-201" value="" style="endArrow=open;html=1;rounded=0;dashed=1;fontSize=11;exitX=0.134;exitY=1.098;exitDx=0;exitDy=0;endFill=0;exitPerimeter=0;entryX=0.25;entryY=0;entryDx=0;entryDy=0;" edge="1" parent="1" source="qw8Mf4owi6WbGOD2SgY8-23" target="qw8Mf4owi6WbGOD2SgY8-169">
          <mxGeometry width="50" height="50" relative="1" as="geometry">
            <mxPoint x="2030.0000000000002" y="520.0000000000001" as="sourcePoint" />
            <mxPoint x="2650" y="1000" as="targetPoint" />
          </mxGeometry>
        </mxCell>
        <mxCell id="qw8Mf4owi6WbGOD2SgY8-202" value="" style="endArrow=open;html=1;rounded=0;dashed=1;fontSize=11;exitX=-0.007;exitY=0.87;exitDx=0;exitDy=0;endFill=0;exitPerimeter=0;entryX=0.278;entryY=0;entryDx=0;entryDy=0;entryPerimeter=0;" edge="1" parent="1" source="qw8Mf4owi6WbGOD2SgY8-10" target="qw8Mf4owi6WbGOD2SgY8-137">
          <mxGeometry width="50" height="50" relative="1" as="geometry">
            <mxPoint x="2049.7200000000003" y="510.1500000000001" as="sourcePoint" />
            <mxPoint x="2620" y="1410" as="targetPoint" />
          </mxGeometry>
        </mxCell>
        <mxCell id="qw8Mf4owi6WbGOD2SgY8-203" value="" style="endArrow=open;html=1;rounded=0;dashed=1;fontSize=11;exitX=-0.004;exitY=0.116;exitDx=0;exitDy=0;endFill=0;exitPerimeter=0;entryX=1;entryY=0;entryDx=0;entryDy=0;" edge="1" parent="1" source="qw8Mf4owi6WbGOD2SgY8-9" target="qw8Mf4owi6WbGOD2SgY8-160">
          <mxGeometry width="50" height="50" relative="1" as="geometry">
            <mxPoint x="2051.12" y="607.2999999999997" as="sourcePoint" />
            <mxPoint x="2650" y="1750" as="targetPoint" />
          </mxGeometry>
        </mxCell>
        <mxCell id="qw8Mf4owi6WbGOD2SgY8-204" value="" style="endArrow=open;html=1;rounded=0;dashed=1;fontSize=11;exitX=0.429;exitY=1.114;exitDx=0;exitDy=0;endFill=0;exitPerimeter=0;entryX=0.057;entryY=-0.012;entryDx=0;entryDy=0;entryPerimeter=0;" edge="1" parent="1" source="qw8Mf4owi6WbGOD2SgY8-27" target="qw8Mf4owi6WbGOD2SgY8-169">
          <mxGeometry width="50" height="50" relative="1" as="geometry">
            <mxPoint x="2040.0000000000005" y="700" as="sourcePoint" />
            <mxPoint x="2650" y="1020" as="targetPoint" />
          </mxGeometry>
        </mxCell>
        <mxCell id="qw8Mf4owi6WbGOD2SgY8-206" value="" style="endArrow=open;html=1;rounded=0;dashed=1;fontSize=11;exitX=0.595;exitY=1.182;exitDx=0;exitDy=0;endFill=0;exitPerimeter=0;entryX=0.75;entryY=0;entryDx=0;entryDy=0;" edge="1" parent="1" source="qw8Mf4owi6WbGOD2SgY8-159" target="qw8Mf4owi6WbGOD2SgY8-103">
          <mxGeometry width="50" height="50" relative="1" as="geometry">
            <mxPoint x="2961.08" y="760" as="sourcePoint" />
            <mxPoint x="3551.5999999999995" y="534.29" as="targetPoint" />
          </mxGeometry>
        </mxCell>
        <mxCell id="qw8Mf4owi6WbGOD2SgY8-208" value="" style="endArrow=open;html=1;rounded=0;dashed=1;fontSize=11;exitX=0.885;exitY=1.131;exitDx=0;exitDy=0;endFill=0;exitPerimeter=0;entryX=-0.011;entryY=-0.007;entryDx=0;entryDy=0;entryPerimeter=0;" edge="1" parent="1" source="qw8Mf4owi6WbGOD2SgY8-159" target="qw8Mf4owi6WbGOD2SgY8-122">
          <mxGeometry width="50" height="50" relative="1" as="geometry">
            <mxPoint x="2960.1200000000003" y="789.2700000000001" as="sourcePoint" />
            <mxPoint x="3839.9999999999995" y="440.72999999999985" as="targetPoint" />
          </mxGeometry>
        </mxCell>
        <mxCell id="qw8Mf4owi6WbGOD2SgY8-209" value="" style="endArrow=open;html=1;rounded=0;dashed=1;fontSize=11;exitX=0.779;exitY=1.079;exitDx=0;exitDy=0;endFill=0;entryX=0.25;entryY=0;entryDx=0;entryDy=0;exitPerimeter=0;" edge="1" parent="1" source="qw8Mf4owi6WbGOD2SgY8-159" target="qw8Mf4owi6WbGOD2SgY8-108">
          <mxGeometry width="50" height="50" relative="1" as="geometry">
            <mxPoint x="2961.0799999999995" y="818.95" as="sourcePoint" />
            <mxPoint x="3540.98" y="1099.9999999999995" as="targetPoint" />
          </mxGeometry>
        </mxCell>
        <mxCell id="qw8Mf4owi6WbGOD2SgY8-210" value="" style="endArrow=open;html=1;rounded=0;dashed=1;fontSize=11;exitX=-0.005;exitY=0.172;exitDx=0;exitDy=0;endFill=0;exitPerimeter=0;entryX=1.002;entryY=0.201;entryDx=0;entryDy=0;entryPerimeter=0;" edge="1" parent="1" source="qw8Mf4owi6WbGOD2SgY8-142" target="qw8Mf4owi6WbGOD2SgY8-171">
          <mxGeometry width="50" height="50" relative="1" as="geometry">
            <mxPoint x="2920" y="649.6699999999998" as="sourcePoint" />
            <mxPoint x="3318.76" y="580.3199999999999" as="targetPoint" />
          </mxGeometry>
        </mxCell>
        <mxCell id="qw8Mf4owi6WbGOD2SgY8-211" value="" style="endArrow=diamondThin;html=1;rounded=0;fontSize=11;exitX=0.005;exitY=0.054;exitDx=0;exitDy=0;endFill=0;exitPerimeter=0;entryX=1.002;entryY=0.081;entryDx=0;entryDy=0;entryPerimeter=0;" edge="1" parent="1" source="qw8Mf4owi6WbGOD2SgY8-137" target="qw8Mf4owi6WbGOD2SgY8-69">
          <mxGeometry width="50" height="50" relative="1" as="geometry">
            <mxPoint x="2602.69" y="759.9999999999997" as="sourcePoint" />
            <mxPoint x="2601.0804463208683" y="708.68" as="targetPoint" />
          </mxGeometry>
        </mxCell>
        <mxCell id="qw8Mf4owi6WbGOD2SgY8-212" value="" style="endArrow=open;html=1;rounded=0;dashed=1;fontSize=11;exitX=-0.004;exitY=0.011;exitDx=0;exitDy=0;endFill=0;exitPerimeter=0;entryX=1;entryY=0.5;entryDx=0;entryDy=0;" edge="1" parent="1" source="qw8Mf4owi6WbGOD2SgY8-162" target="qw8Mf4owi6WbGOD2SgY8-70">
          <mxGeometry width="50" height="50" relative="1" as="geometry">
            <mxPoint x="2601.079999999999" y="1265.9199999999996" as="sourcePoint" />
            <mxPoint x="1531.68" y="930" as="targetPoint" />
          </mxGeometry>
        </mxCell>
        <mxCell id="qw8Mf4owi6WbGOD2SgY8-213" value="" style="endArrow=open;html=1;rounded=0;dashed=1;fontSize=11;exitX=0;exitY=0.853;exitDx=0;exitDy=0;endFill=0;exitPerimeter=0;entryX=1;entryY=0.5;entryDx=0;entryDy=0;" edge="1" parent="1" source="qw8Mf4owi6WbGOD2SgY8-179" target="qw8Mf4owi6WbGOD2SgY8-80">
          <mxGeometry width="50" height="50" relative="1" as="geometry">
            <mxPoint x="2639.879999999999" y="768.3499999999997" as="sourcePoint" />
            <mxPoint x="1570.48" y="432.43000000000006" as="targetPoint" />
          </mxGeometry>
        </mxCell>
        <mxCell id="qw8Mf4owi6WbGOD2SgY8-215" value="" style="endArrow=block;html=1;rounded=0;dashed=1;fontSize=11;exitX=0.445;exitY=1.081;exitDx=0;exitDy=0;endFill=0;exitPerimeter=0;entryX=0.5;entryY=0;entryDx=0;entryDy=0;" edge="1" parent="1" source="qw8Mf4owi6WbGOD2SgY8-179" target="qw8Mf4owi6WbGOD2SgY8-164">
          <mxGeometry width="50" height="50" relative="1" as="geometry">
            <mxPoint x="2180.28" y="544.5600000000001" as="sourcePoint" />
            <mxPoint x="2082.9199999999996" y="545.4300000000001" as="targetPoint" />
          </mxGeometry>
        </mxCell>
        <mxCell id="qw8Mf4owi6WbGOD2SgY8-216" value="" style="endArrow=classic;html=1;rounded=0;fontSize=11;exitX=0.5;exitY=0;exitDx=0;exitDy=0;entryX=0.5;entryY=1;entryDx=0;entryDy=0;entryPerimeter=0;" edge="1" parent="1" source="qw8Mf4owi6WbGOD2SgY8-49" target="qw8Mf4owi6WbGOD2SgY8-48">
          <mxGeometry width="50" height="50" relative="1" as="geometry">
            <mxPoint x="1630" y="650" as="sourcePoint" />
            <mxPoint x="1680" y="600" as="targetPoint" />
          </mxGeometry>
        </mxCell>
        <mxCell id="qw8Mf4owi6WbGOD2SgY8-217" value="" style="endArrow=classic;html=1;rounded=0;fontSize=11;exitX=1.008;exitY=0.079;exitDx=0;exitDy=0;entryX=0.02;entryY=0.014;entryDx=0;entryDy=0;exitPerimeter=0;entryPerimeter=0;" edge="1" parent="1" source="qw8Mf4owi6WbGOD2SgY8-50" target="qw8Mf4owi6WbGOD2SgY8-112">
          <mxGeometry width="50" height="50" relative="1" as="geometry">
            <mxPoint x="1680" y="850" as="sourcePoint" />
            <mxPoint x="1680" y="730" as="targetPoint" />
          </mxGeometry>
        </mxCell>
        <mxCell id="qw8Mf4owi6WbGOD2SgY8-218" value="" style="endArrow=classic;html=1;rounded=0;fontSize=11;exitX=1;exitY=0.5;exitDx=0;exitDy=0;entryX=-0.035;entryY=0.897;entryDx=0;entryDy=0;entryPerimeter=0;" edge="1" parent="1" source="qw8Mf4owi6WbGOD2SgY8-55" target="qw8Mf4owi6WbGOD2SgY8-131">
          <mxGeometry width="50" height="50" relative="1" as="geometry">
            <mxPoint x="1570.96" y="730" as="sourcePoint" />
            <mxPoint x="3440" y="1761" as="targetPoint" />
          </mxGeometry>
        </mxCell>
        <mxCell id="qw8Mf4owi6WbGOD2SgY8-221" value="" style="endArrow=none;dashed=1;html=1;dashPattern=1 3;strokeWidth=2;rounded=0;fontSize=11;" edge="1" parent="1">
          <mxGeometry width="50" height="50" relative="1" as="geometry">
            <mxPoint x="840" y="1200" as="sourcePoint" />
            <mxPoint x="840" as="targetPoint" />
          </mxGeometry>
        </mxCell>
        <mxCell id="qw8Mf4owi6WbGOD2SgY8-222" value="" style="endArrow=none;dashed=1;html=1;dashPattern=1 3;strokeWidth=2;rounded=0;fontSize=11;" edge="1" parent="1">
          <mxGeometry width="50" height="50" relative="1" as="geometry">
            <mxPoint x="840" as="sourcePoint" />
            <mxPoint x="1600" as="targetPoint" />
          </mxGeometry>
        </mxCell>
        <mxCell id="qw8Mf4owi6WbGOD2SgY8-223" value="" style="endArrow=none;dashed=1;html=1;dashPattern=1 3;strokeWidth=2;rounded=0;fontSize=11;" edge="1" parent="1">
          <mxGeometry width="50" height="50" relative="1" as="geometry">
            <mxPoint x="1600" y="1200" as="sourcePoint" />
            <mxPoint x="1600" as="targetPoint" />
          </mxGeometry>
        </mxCell>
        <mxCell id="qw8Mf4owi6WbGOD2SgY8-224" value="" style="endArrow=none;dashed=1;html=1;dashPattern=1 3;strokeWidth=2;rounded=0;fontSize=11;" edge="1" parent="1">
          <mxGeometry width="50" height="50" relative="1" as="geometry">
            <mxPoint x="840" y="1200" as="sourcePoint" />
            <mxPoint x="1600" y="1200" as="targetPoint" />
          </mxGeometry>
        </mxCell>
        <mxCell id="qw8Mf4owi6WbGOD2SgY8-225" value="" style="endArrow=none;dashed=1;html=1;dashPattern=1 3;strokeWidth=2;rounded=0;fontSize=11;" edge="1" parent="1">
          <mxGeometry width="50" height="50" relative="1" as="geometry">
            <mxPoint x="1758.26" y="5" as="sourcePoint" />
            <mxPoint x="3238.26" y="5" as="targetPoint" />
          </mxGeometry>
        </mxCell>
        <mxCell id="qw8Mf4owi6WbGOD2SgY8-226" value="" style="endArrow=none;dashed=1;html=1;dashPattern=1 3;strokeWidth=2;rounded=0;fontSize=11;" edge="1" parent="1">
          <mxGeometry width="50" height="50" relative="1" as="geometry">
            <mxPoint x="1758.26" y="165" as="sourcePoint" />
            <mxPoint x="3238.26" y="165" as="targetPoint" />
          </mxGeometry>
        </mxCell>
        <mxCell id="qw8Mf4owi6WbGOD2SgY8-227" value="" style="endArrow=none;dashed=1;html=1;dashPattern=1 3;strokeWidth=2;rounded=0;fontSize=11;" edge="1" parent="1">
          <mxGeometry width="50" height="50" relative="1" as="geometry">
            <mxPoint x="1758.26" y="155" as="sourcePoint" />
            <mxPoint x="1758.26" y="5" as="targetPoint" />
          </mxGeometry>
        </mxCell>
        <mxCell id="qw8Mf4owi6WbGOD2SgY8-228" value="" style="endArrow=none;dashed=1;html=1;dashPattern=1 3;strokeWidth=2;rounded=0;fontSize=11;" edge="1" parent="1">
          <mxGeometry width="50" height="50" relative="1" as="geometry">
            <mxPoint x="3239.26" y="165" as="sourcePoint" />
            <mxPoint x="3239.34" as="targetPoint" />
          </mxGeometry>
        </mxCell>
        <mxCell id="qw8Mf4owi6WbGOD2SgY8-229" value="" style="endArrow=none;dashed=1;html=1;dashPattern=1 3;strokeWidth=2;rounded=0;fontSize=11;" edge="1" parent="1">
          <mxGeometry width="50" height="50" relative="1" as="geometry">
            <mxPoint x="1640" y="1560" as="sourcePoint" />
            <mxPoint x="1640" y="320" as="targetPoint" />
          </mxGeometry>
        </mxCell>
        <mxCell id="qw8Mf4owi6WbGOD2SgY8-230" value="" style="endArrow=none;dashed=1;html=1;dashPattern=1 3;strokeWidth=2;rounded=0;fontSize=11;" edge="1" parent="1">
          <mxGeometry width="50" height="50" relative="1" as="geometry">
            <mxPoint x="3880" y="1560" as="sourcePoint" />
            <mxPoint x="3880" y="320" as="targetPoint" />
          </mxGeometry>
        </mxCell>
        <mxCell id="qw8Mf4owi6WbGOD2SgY8-231" value="" style="endArrow=none;dashed=1;html=1;dashPattern=1 3;strokeWidth=2;rounded=0;fontSize=11;" edge="1" parent="1">
          <mxGeometry width="50" height="50" relative="1" as="geometry">
            <mxPoint x="1640" y="320" as="sourcePoint" />
            <mxPoint x="3880" y="320" as="targetPoint" />
          </mxGeometry>
        </mxCell>
        <mxCell id="qw8Mf4owi6WbGOD2SgY8-232" value="" style="endArrow=none;dashed=1;html=1;dashPattern=1 3;strokeWidth=2;rounded=0;fontSize=11;" edge="1" parent="1">
          <mxGeometry width="50" height="50" relative="1" as="geometry">
            <mxPoint x="1640" y="1560" as="sourcePoint" />
            <mxPoint x="3880" y="1560" as="targetPoint" />
          </mxGeometry>
        </mxCell>
      </root>
    </mxGraphModel>
  </diagram>
</mxfile>
